<svg xmlns="http://www.w3.org/2000/svg" width="820" height="410" font-family="monospace, Menlo, Consolas, 'Courier New'">
<rect width="820" height="410" fill="#FFFFFF"/>
<text x="410" y="35" font-size="20" font-weight="bold" text-anchor="middle" fill="#212121">Allocation Scaling &#x2014; rolly vs OTel (N = 10,000)</text>
<text x="410" y="55" font-size="12" fill="#757575" text-anchor="middle">Lower is better. Winner highlighted.</text>
<rect x="40" y="70" width="680" height="280" fill="none" stroke="#CFD8DC" stroke-width="1" rx="4"/>
<rect x="40" y="70" width="680" height="40" fill="#37474F" rx="4"/>
<rect x="40" y="106" width="680" height="4" fill="#37474F"/>
<text x="140" y="96" font-size="14" font-weight="bold" fill="#FFFFFF" text-anchor="middle">Scenario</text>
<text x="360" y="96" font-size="14" font-weight="bold" fill="#FFFFFF" text-anchor="middle">allocs / op</text>
<text x="600" y="96" font-size="14" font-weight="bold" fill="#FFFFFF" text-anchor="middle">ns / op</text>
<line x1="240" y1="70" x2="240" y2="150" stroke="#546E7A" stroke-width="1"/>
<line x1="360" y1="70" x2="360" y2="150" stroke="#546E7A" stroke-width="1"/>
<line x1="480" y1="70" x2="480" y2="150" stroke="#546E7A" stroke-width="1"/>
<line x1="600" y1="70" x2="600" y2="150" stroke="#546E7A" stroke-width="1"/>
<rect x="40" y="110" width="680" height="40" fill="#455A64"/>
<text x="300" y="136" font-size="13" font-weight="bold" fill="#FFFFFF" text-anchor="middle">rolly</text>
<text x="420" y="136" font-size="13" font-weight="bold" fill="#FFFFFF" text-anchor="middle">OTel</text>
<text x="540" y="136" font-size="13" font-weight="bold" fill="#FFFFFF" text-anchor="middle">rolly</text>
<text x="660" y="136" font-size="13" font-weight="bold" fill="#FFFFFF" text-anchor="middle">OTel</text>
<rect x="40" y="150" width="680" height="40" fill="#FFFFFF"/>
<rect x="240" y="150" width="120" height="40" fill="#E8F5E9"/>
<rect x="480" y="150" width="120" height="40" fill="#E8F5E9"/>
<text x="52" y="176" font-size="13" fill="#212121">counter (hot)</text>
<text x="344" y="176" font-size="13" fill="#212121" text-anchor="end">0</text>
<text x="464" y="176" font-size="13" fill="#212121" text-anchor="end">0</text>
<text x="584" y="176" font-size="13" fill="#212121" text-anchor="end">26.3</text>
<text x="704" y="176" font-size="13" fill="#212121" text-anchor="end">81.5</text>
<line x1="40" y1="150" x2="720" y2="150" stroke="#CFD8DC" stroke-width="0.5"/>
<rect x="40" y="190" width="680" height="40" fill="#FAFAFA"/>
<text x="52" y="216" font-size="13" fill="#212121">gauge (hot)</text>
<text x="344" y="216" font-size="13" fill="#212121" text-anchor="end">0</text>
<text x="464" y="216" font-size="13" fill="#212121" text-anchor="end">—</text>
<text x="584" y="216" font-size="13" fill="#212121" text-anchor="end">25.9</text>
<text x="704" y="216" font-size="13" fill="#212121" text-anchor="end">—</text>
<line x1="40" y1="190" x2="720" y2="190" stroke="#CFD8DC" stroke-width="0.5"/>
<rect x="40" y="230" width="680" height="40" fill="#FFFFFF"/>
<text x="52" y="256" font-size="13" fill="#212121">histogram (hot)</text>
<text x="344" y="256" font-size="13" fill="#212121" text-anchor="end">0</text>
<text x="464" y="256" font-size="13" fill="#212121" text-anchor="end">—</text>
<text x="584" y="256" font-size="13" fill="#212121" text-anchor="end">29.1</text>
<text x="704" y="256" font-size="13" fill="#212121" text-anchor="end">—</text>
<line x1="40" y1="230" x2="720" y2="230" stroke="#CFD8DC" stroke-width="0.5"/>
<rect x="40" y="270" width="680" height="40" fill="#FAFAFA"/>
<rect x="360" y="270" width="120" height="40" fill="#E3F2FD"/>
<rect x="480" y="270" width="120" height="40" fill="#E8F5E9"/>
<text x="52" y="296" font-size="13" fill="#212121">counter (cold)</text>
<text x="344" y="296" font-size="13" fill="#212121" text-anchor="end">9.00</text>
<text x="464" y="296" font-size="13" fill="#212121" text-anchor="end">3.60</text>
<text x="584" y="296" font-size="13" fill="#212121" text-anchor="end">199.4</text>
<text x="704" y="296" font-size="13" fill="#212121" text-anchor="end">426.5</text>
<line x1="40" y1="270" x2="720" y2="270" stroke="#CFD8DC" stroke-width="0.5"/>
<rect x="40" y="310" width="680" height="40" fill="#FFFFFF"/>
<rect x="360" y="310" width="120" height="40" fill="#E3F2FD"/>
<rect x="480" y="310" width="120" height="40" fill="#E8F5E9"/>
<text x="52" y="336" font-size="13" fill="#212121">counter (mixed)</text>
<text x="344" y="336" font-size="13" fill="#212121" text-anchor="end">0.90</text>
<text x="464" y="336" font-size="13" fill="#212121" text-anchor="end">0.60</text>
<text x="584" y="336" font-size="13" fill="#212121" text-anchor="end">45.0</text>
<text x="704" y="336" font-size="13" fill="#212121" text-anchor="end">133.5</text>
<line x1="40" y1="310" x2="720" y2="310" stroke="#CFD8DC" stroke-width="0.5"/>
<line x1="240" y1="150" x2="240" y2="350" stroke="#CFD8DC" stroke-width="0.5"/>
<line x1="360" y1="150" x2="360" y2="350" stroke="#CFD8DC" stroke-width="0.5"/>
<line x1="480" y1="150" x2="480" y2="350" stroke="#CFD8DC" stroke-width="0.5"/>
<line x1="600" y1="150" x2="600" y2="350" stroke="#CFD8DC" stroke-width="0.5"/>
<rect x="40" y="363" width="14" height="14" fill="#E8F5E9" stroke="#CFD8DC" stroke-width="0.5" rx="2"/>
<text x="60" y="375" font-size="12" fill="#616161">rolly wins</text>
<rect x="160" y="363" width="14" height="14" fill="#E3F2FD" stroke="#CFD8DC" stroke-width="0.5" rx="2"/>
<text x="180" y="375" font-size="12" fill="#616161">OTel wins</text>
<text x="280" y="375" font-size="12" fill="#9E9E9E">Lower is better</text>
</svg>
