<svg viewBox="0 0 780 434" xmlns="http://www.w3.org/2000/svg">
  <style>
    .title { font: bold 18px monospace; fill: #1e293b; }
    .subtitle { font: 14px system-ui, -apple-system, sans-serif; fill: #64748b; }
    .col-hdr { font: bold 10px monospace; fill: #64748b; }
    .cell { font: 12px monospace; fill: #1e293b; }
    .cell-desc { font: 10px system-ui, -apple-system, sans-serif; fill: #94a3b8; }
    .summary { font: 12px monospace; fill: #1e293b; }
    .verdict { font: bold 12px monospace; }
    .footer { font: 10px system-ui, -apple-system, sans-serif; fill: #94a3b8; }
  </style>
  <rect width="780" height="434" fill="#fafafa"/>
  <rect x="16" y="12" width="748" height="410" rx="8" fill="#ffffff" stroke="#e2e8f0" stroke-width="1"/>
  <rect x="16" y="12" width="748" height="4" rx="8" fill="#ea580c"/>
  <text x="390" y="42" text-anchor="middle" class="title">rolly v0.9.0 Performance Baseline</text>
  <text x="390" y="62" text-anchor="middle" class="subtitle">arm64-darwin / Apple M-series / 2026-03-11</text>
  <line x1="32" y1="76" x2="748" y2="76" stroke="#e2e8f0" stroke-width="1"/>
  <text x="36" y="92" class="col-hdr">ENDPOINT</text>
  <text x="200" y="92" class="col-hdr">LATENCY (us)</text>
  <text x="400" y="92" class="col-hdr">WEIGHT</text>
  <text x="460" y="92" class="col-hdr">ALLOCS</text>
  <text x="520" y="92" class="col-hdr">DESCRIPTION</text>
  <line x1="32" y1="98" x2="748" y2="98" stroke="#e2e8f0" stroke-width="0.5"/>
  <rect x="32" y="136" width="716" height="32" fill="#f8fafc"/>
  <text x="36" y="150" class="cell">catalog_browse</text>
  <rect x="200" y="140" width="21" height="14" rx="2" fill="#059669" opacity="0.8"/>
  <text x="225" y="150" class="cell">4.0</text>
  <text x="400" y="150" class="cell">40%</text>
  <text x="460" y="150" class="cell">25</text>
  <text x="520" y="161" class="cell-desc">GET /products: 1 span (10 attrs), 1 l...</text>
  <line x1="32" y1="168" x2="748" y2="168" stroke="#e2e8f0" stroke-width="0.5"/>
  <text x="36" y="182" class="cell">search</text>
  <rect x="200" y="172" width="20" height="14" rx="2" fill="#059669" opacity="0.8"/>
  <text x="224" y="182" class="cell">3.7</text>
  <text x="400" y="182" class="cell">10%</text>
  <text x="460" y="182" class="cell">22</text>
  <text x="520" y="193" class="cell-desc">GET /search: 1 span (10 attrs), 1 log...</text>
  <line x1="32" y1="200" x2="748" y2="200" stroke="#e2e8f0" stroke-width="0.5"/>
  <rect x="32" y="200" width="716" height="32" fill="#f8fafc"/>
  <text x="36" y="214" class="cell">product_detail</text>
  <rect x="200" y="204" width="19" height="14" rx="2" fill="#059669" opacity="0.8"/>
  <text x="223" y="214" class="cell">3.7</text>
  <text x="400" y="214" class="cell">20%</text>
  <text x="460" y="214" class="cell">20</text>
  <text x="520" y="225" class="cell-desc">GET /products/:id: 1 span (10 attrs),...</text>
  <line x1="32" y1="232" x2="748" y2="232" stroke="#e2e8f0" stroke-width="0.5"/>
  <text x="36" y="246" class="cell">cart_add</text>
  <rect x="200" y="236" width="25" height="14" rx="2" fill="#059669" opacity="0.8"/>
  <text x="229" y="246" class="cell">4.7</text>
  <text x="400" y="246" class="cell">18%</text>
  <text x="460" y="246" class="cell">28</text>
  <text x="520" y="257" class="cell-desc">POST /cart/add: 1 span (11 attrs), 2 ...</text>
  <line x1="32" y1="264" x2="748" y2="264" stroke="#e2e8f0" stroke-width="0.5"/>
  <rect x="32" y="264" width="716" height="32" fill="#f8fafc"/>
  <text x="36" y="278" class="cell">checkout</text>
  <rect x="200" y="268" width="55" height="14" rx="2" fill="#059669" opacity="0.8"/>
  <text x="259" y="278" class="cell">10.2</text>
  <text x="400" y="278" class="cell">8%</text>
  <text x="460" y="278" class="cell">55</text>
  <text x="520" y="289" class="cell-desc">POST /checkout: 4 spans (11+3+2+2 att...</text>
  <line x1="32" y1="296" x2="748" y2="296" stroke="#e2e8f0" stroke-width="0.5"/>
  <text x="36" y="310" class="cell">health</text>
  <rect x="200" y="300" width="7" height="14" rx="2" fill="#059669" opacity="0.8"/>
  <text x="211" y="310" class="cell">1.3</text>
  <text x="400" y="310" class="cell">4%</text>
  <text x="460" y="310" class="cell">6</text>
  <text x="520" y="321" class="cell-desc">GET /health: 1 span (6 attrs), no log...</text>
  <line x1="32" y1="328" x2="748" y2="328" stroke="#e2e8f0" stroke-width="0.5"/>
  <line x1="380" y1="136" x2="380" y2="328" stroke="#dc2626" stroke-width="1" stroke-dasharray="4,2"/>
  <line x1="32" y1="340" x2="748" y2="340" stroke="#e2e8f0" stroke-width="1"/>
  <text x="36" y="358" class="summary">Weighted avg: 4.42 us/req</text>
  <text x="250" y="358" class="summary">CPU at 3000 req/s: 1.33%</text>
  <rect x="500" y="348" width="70" height="20" rx="10" fill="#ecfdf5" stroke="#059669" stroke-width="1"/>
  <text x="535" y="362" text-anchor="middle" class="verdict" fill="#059669">PASS</text>
  <text x="390" y="404" text-anchor="middle" class="footer">Budget: 33.3 us/req (10% CPU at 3000 req/s)</text>
  <text x="390" y="420" text-anchor="middle" class="footer">rolly &#x2014; github.com/l1x/rolly</text>
</svg>
