<svg xmlns="http://www.w3.org/2000/svg" viewBox="0 0 760 736" font-family="'Inter','SF Pro Display',system-ui,sans-serif" font-size="14">
<style>
  .title { font-size: 17px; font-weight: 700; fill: #111827; letter-spacing: -0.02em; }
  .subtitle { font-size: 12px; fill: #9ca3af; }
  .hdr { font-size: 12px; font-weight: 600; fill: #6b7280; }
  .scenario { font-size: 14px; fill: #111827; font-weight: 500; }
  .v { font-size: 13px; fill: #374151; text-anchor: end; font-variant-numeric: tabular-nums; }
  .best { fill: #059669; font-weight: 600; }
  .worst { fill: #dc2626; }
  .neutral { fill: #6b7280; }
  .grid { stroke: #e5e7eb; stroke-width: 1; }
  .grid-thick { stroke: #d1d5db; stroke-width: 1.5; }
</style>
<rect width="760" height="736" fill="#ffffff"/>
<text x="20" y="28" class="title">rolly vs OpenTelemetry SDK 0.31 — Criterion Benchmarks (95% CI)</text>
<text x="20" y="48" class="subtitle">Values show mean ± CI half-width in nanoseconds. Green = rolly faster, red = rolly slower.</text>
<rect x="0" y="70" width="760" height="36" fill="#f8fafc"/>
<line x1="0" y1="106" x2="760" y2="106" class="grid-thick"/>
<text x="32" y="93" class="hdr" text-anchor="start">Scenario</text>
<text x="418" y="93" class="hdr" text-anchor="end">rolly (ns)</text>
<text x="588" y="93" class="hdr" text-anchor="end">OTel SDK (ns)</text>
<text x="728" y="93" class="hdr" text-anchor="end">Speedup</text>
<line x1="0" y1="146" x2="760" y2="146" class="grid"/>
<text x="32" y="132" class="scenario">Counter (10 attrs)</text>
<text x="418" y="132" class="v">90.7 ± 0.1</text>
<text x="588" y="132" class="v">257.6 ± 0.3</text>
<text x="728" y="132" class="v best">2.8x faster</text>
<rect x="0" y="146" width="760" height="40" fill="#f9fafb"/>
<line x1="0" y1="186" x2="760" y2="186" class="grid"/>
<text x="32" y="172" class="scenario">Counter (16 attrs)</text>
<text x="418" y="172" class="v">143.1 ± 0.3</text>
<text x="588" y="172" class="v">406.5 ± 1.0</text>
<text x="728" y="172" class="v best">2.8x faster</text>
<line x1="0" y1="226" x2="760" y2="226" class="grid"/>
<text x="32" y="212" class="scenario">Counter (3 attrs)</text>
<text x="418" y="212" class="v">26.2 ± 0.0</text>
<text x="588" y="212" class="v">88.8 ± 0.1</text>
<text x="728" y="212" class="v best">3.4x faster</text>
<rect x="0" y="226" width="760" height="40" fill="#f9fafb"/>
<line x1="0" y1="266" x2="760" y2="266" class="grid"/>
<text x="32" y="252" class="scenario">Counter (3 attrs cold)</text>
<text x="418" y="252" class="v">406.1 ± 0.7</text>
<text x="588" y="252" class="v">2512.2 ± 5.8</text>
<text x="728" y="252" class="v best">6.2x faster</text>
<line x1="0" y1="306" x2="760" y2="306" class="grid"/>
<text x="32" y="292" class="scenario">Counter (5 attrs)</text>
<text x="418" y="292" class="v">43.0 ± 0.0</text>
<text x="588" y="292" class="v">132.9 ± 0.2</text>
<text x="728" y="292" class="v best">3.1x faster</text>
<rect x="0" y="306" width="760" height="40" fill="#f9fafb"/>
<line x1="0" y1="346" x2="760" y2="346" class="grid"/>
<text x="32" y="332" class="scenario">Counter (5 attrs cold)</text>
<text x="418" y="332" class="v">520.3 ± 0.8</text>
<text x="588" y="332" class="v">2663.1 ± 5.0</text>
<text x="728" y="332" class="v best">5.1x faster</text>
<line x1="0" y1="386" x2="760" y2="386" class="grid"/>
<text x="32" y="372" class="scenario">Counter (8 attrs)</text>
<text x="418" y="372" class="v">68.4 ± 0.1</text>
<text x="588" y="372" class="v">206.3 ± 0.2</text>
<text x="728" y="372" class="v best">3.0x faster</text>
<rect x="0" y="386" width="760" height="40" fill="#f9fafb"/>
<line x1="0" y1="426" x2="760" y2="426" class="grid"/>
<text x="32" y="412" class="scenario">Counter (no attrs)</text>
<text x="418" y="412" class="v neutral">—</text>
<text x="588" y="412" class="v">4.9 ± 0.0</text>
<text x="728" y="412" class="v neutral">—</text>
<line x1="0" y1="466" x2="760" y2="466" class="grid"/>
<text x="32" y="452" class="scenario">Gauge (3 attrs)</text>
<text x="418" y="452" class="v">25.7 ± 0.0</text>
<text x="588" y="452" class="v">81.5 ± 0.1</text>
<text x="728" y="452" class="v best">3.2x faster</text>
<rect x="0" y="466" width="760" height="40" fill="#f9fafb"/>
<line x1="0" y1="506" x2="760" y2="506" class="grid"/>
<text x="32" y="492" class="scenario">Gauge (5 attrs)</text>
<text x="418" y="492" class="v">42.3 ± 0.2</text>
<text x="588" y="492" class="v">132.1 ± 0.2</text>
<text x="728" y="492" class="v best">3.1x faster</text>
<line x1="0" y1="546" x2="760" y2="546" class="grid"/>
<text x="32" y="532" class="scenario">Histogram (10 attrs)</text>
<text x="418" y="532" class="v">93.7 ± 0.2</text>
<text x="588" y="532" class="v">263.7 ± 0.4</text>
<text x="728" y="532" class="v best">2.8x faster</text>
<rect x="0" y="546" width="760" height="40" fill="#f9fafb"/>
<line x1="0" y1="586" x2="760" y2="586" class="grid"/>
<text x="32" y="572" class="scenario">Histogram (16 attrs)</text>
<text x="418" y="572" class="v">146.5 ± 0.3</text>
<text x="588" y="572" class="v">411.4 ± 0.8</text>
<text x="728" y="572" class="v best">2.8x faster</text>
<line x1="0" y1="626" x2="760" y2="626" class="grid"/>
<text x="32" y="612" class="scenario">Histogram (3 attrs)</text>
<text x="418" y="612" class="v">28.6 ± 0.0</text>
<text x="588" y="612" class="v">89.2 ± 0.2</text>
<text x="728" y="612" class="v best">3.1x faster</text>
<rect x="0" y="626" width="760" height="40" fill="#f9fafb"/>
<line x1="0" y1="666" x2="760" y2="666" class="grid"/>
<text x="32" y="652" class="scenario">Histogram (5 attrs)</text>
<text x="418" y="652" class="v">46.3 ± 0.1</text>
<text x="588" y="652" class="v">139.1 ± 0.2</text>
<text x="728" y="652" class="v best">3.0x faster</text>
<line x1="0" y1="706" x2="760" y2="706" class="grid"/>
<text x="32" y="692" class="scenario">Histogram (8 attrs)</text>
<text x="418" y="692" class="v">71.0 ± 0.1</text>
<text x="588" y="692" class="v">211.8 ± 0.3</text>
<text x="728" y="692" class="v best">3.0x faster</text>
<line x1="260" y1="70" x2="260" y2="706" class="grid"/>
<line x1="430" y1="70" x2="430" y2="706" class="grid"/>
<line x1="600" y1="70" x2="600" y2="706" class="grid"/>
<line x1="740" y1="70" x2="740" y2="706" class="grid"/>
<text x="20" y="724" class="subtitle">Source: criterion (cargo bench --features _bench -- comparison). CI = 95% confidence interval on mean.</text>
</svg>
